<svg width="79" height="69" viewBox="0 0 79 69" fill="none" xmlns="http://www.w3.org/2000/svg">
<path d="M67.5605 3.59302C64.2732 1.50978 60.4626 0.401359 56.5708 0.396367C53.2069 0.431424 49.8979 1.2538 46.9088 2.79758C43.9198 4.34136 41.3339 6.56366 39.3581 9.28648C37.3855 6.56039 34.8002 4.33566 31.8105 2.79152C28.8207 1.24738 25.5102 0.426958 22.1454 0.396367C18.2347 0.393731 14.4038 1.50233 11.0989 3.59302C0.544314 10.1755 -3.06847 24.759 3.02219 36.1459C7.99686 45.4521 28.9737 61.6056 36.5587 67.2423C37.3515 67.8319 38.3133 68.1503 39.3013 68.1503C40.2894 68.1503 41.2512 67.8319 42.044 67.2423C49.6101 61.5678 70.6058 45.4521 75.5805 36.1459C81.6712 24.7401 78.0584 10.1566 67.5605 3.59302ZM72.4973 34.4813C68.7143 41.4421 53.2607 54.4936 39.9823 64.3862C39.8016 64.52 39.583 64.5929 39.3581 64.5942C39.139 64.5928 38.9264 64.5198 38.7528 64.3862C25.5122 54.4936 9.96403 41.4421 6.23776 34.4813C1.01719 24.7022 4.08143 12.2183 13.0472 6.61945C15.7707 4.89917 18.924 3.98139 22.1454 3.97135C24.956 3.99592 27.7212 4.68364 30.2159 5.97865C32.7106 7.27366 34.8644 9.13938 36.5019 11.4239L39.3581 15.2069L42.2143 11.4239C43.8518 9.13938 46.0055 7.27366 48.5003 5.97865C50.995 4.68364 53.7601 3.99592 56.5708 3.97135C59.7922 3.98139 62.9454 4.89917 65.669 6.61945C74.5969 12.1994 77.6612 24.6834 72.4406 34.4625L72.4973 34.4813Z" fill="black"/>
</svg>
