<svg width="20" height="20" viewBox="0 0 20 20" fill="none" xmlns="http://www.w3.org/2000/svg">
<path id="Icon" d="M0.780809 6.29658L6.47795 0.748339C7.52048 -0.249446 9.19178 -0.249446 10.2343 0.748339L13.7778 4.15045C13.9793 4.34759 14.2118 4.51223 14.4665 4.63821L18.3105 6.51607C19.0828 6.89003 19.6231 7.60322 19.7621 8.43226C19.9011 9.26131 19.6218 10.1048 19.0117 10.6986L15.6685 13.9544L19.7254 17.9052C20.0915 18.2623 20.0915 18.8407 19.7254 19.1978C19.5465 19.365 19.3097 19.4608 19.0617 19.466C18.8128 19.4658 18.5741 19.3693 18.3981 19.1978L14.3413 15.2469L10.9981 18.5027C10.3884 19.0969 9.52224 19.3689 8.67095 19.2336C7.81965 19.0982 7.08732 18.572 6.70333 17.8199L4.77507 14.0519C4.64571 13.8039 4.47665 13.5775 4.27422 13.3813L0.780809 9.97915C-0.260269 8.96098 -0.260269 7.31475 0.780809 6.29658Z" fill="#FFBA53"/>
</svg>
