<svg width="583" height="319" viewBox="0 0 583 319" fill="none" xmlns="http://www.w3.org/2000/svg">
<path d="M1.47682 97.8799L40.316 1.74953L60.3729 9.85302L27.6712 90.7925L39.4205 95.5395L72.1222 14.6L92.0603 22.6556L59.3587 103.595L70.6332 108.15L103.335 27.2108L123.273 35.2663L84.4338 131.397L1.47682 97.8799ZM97.9865 136.872L125.701 68.2756L145.046 76.0914L134.114 103.15L136.962 104.301L158.338 81.4618L179.107 89.8529L152.487 116.786L151.748 158.594L131.335 150.346L132.455 115.457L129.606 114.306L117.331 144.688L97.9865 136.872ZM180.671 171.66C175.765 169.678 171.828 167.121 168.86 163.989C165.971 160.889 164.209 157.278 163.574 153.155C163.017 149.065 163.746 144.528 165.76 139.543L176.309 113.434C178.323 108.449 180.95 104.679 184.192 102.123C187.512 99.5993 191.289 98.2259 195.52 98.0029C199.831 97.8118 204.439 98.7072 209.345 100.689C214.25 102.671 218.147 105.212 221.036 108.312C224.005 111.444 225.806 115.071 226.442 119.193C227.077 123.315 226.388 127.869 224.374 132.853L213.825 158.963C211.811 163.947 209.144 167.702 205.823 170.225C202.503 172.749 198.687 174.107 194.376 174.298C190.145 174.521 185.576 173.641 180.671 171.66ZM185.968 158.89C187.234 159.402 188.351 159.485 189.319 159.139C190.318 158.715 191.177 157.957 191.893 156.866C192.721 155.728 193.487 154.289 194.19 152.548L205.794 123.828C206.497 122.087 206.931 120.56 207.094 119.245C207.368 117.883 207.277 116.742 206.82 115.821C206.396 114.822 205.551 114.066 204.285 113.554C203.019 113.043 201.886 112.999 200.886 113.424C199.918 113.769 199.021 114.511 198.193 115.649C197.397 116.708 196.647 118.108 195.944 119.848L184.34 148.569C183.637 150.309 183.188 151.876 182.993 153.27C182.83 154.585 182.96 155.742 183.385 156.742C183.841 157.663 184.702 158.379 185.968 158.89ZM210.825 183.291L216.34 169.642C218.871 170.665 221.088 171.101 222.99 170.949C224.972 170.829 226.821 170.012 228.537 168.496C230.365 166.934 232.227 164.603 234.123 161.504C236.052 158.325 238.269 154.205 240.774 149.143L254.968 120.503L298.524 138.1L270.809 206.697L251.464 198.881L273.905 143.339L266.072 140.175L256.211 159.798C252.78 166.695 249.607 172.269 246.693 176.522C243.778 180.774 240.788 183.846 237.724 185.737C234.691 187.549 231.289 188.337 227.518 188.102C223.748 187.867 219.291 186.711 214.148 184.633L210.825 183.291ZM296.603 218.499C293.122 217.093 290.53 215.079 288.828 212.459C287.125 209.838 286.192 207.022 286.028 204.011C285.897 200.92 286.374 198.03 287.461 195.34C289.187 191.068 291.472 187.803 294.317 185.547C297.24 183.323 300.486 181.781 304.054 180.922C307.622 180.063 311.34 179.632 315.206 179.63C319.105 179.548 322.9 179.609 326.591 179.812L329.372 172.928C329.852 171.742 330.149 170.665 330.263 169.699C330.409 168.654 330.301 167.782 329.939 167.083C329.609 166.306 328.89 165.693 327.783 165.246C326.675 164.798 325.709 164.684 324.884 164.903C324.138 165.154 323.471 165.666 322.882 166.441C322.325 167.136 321.799 167.982 321.304 168.979L318.816 173.771L301.064 165.771C304.784 157.702 309.406 152.529 314.928 150.25C320.561 147.924 327.374 148.376 335.365 151.605C342.327 154.418 346.726 158.45 348.562 163.701C350.509 168.906 350.252 174.554 347.79 180.646L334.844 212.689C333.693 215.538 332.726 218.046 331.942 220.214C331.237 222.414 330.644 224.338 330.163 225.984C329.761 227.662 329.415 229.087 329.126 230.259L311.799 223.258C312.297 221.342 312.819 219.253 313.365 216.989C313.912 214.724 314.186 213.363 314.188 212.903C312.246 215.432 309.72 217.356 306.609 218.676C303.578 220.029 300.243 219.97 296.603 218.499ZM308.761 208.226C309.552 208.545 310.328 208.675 311.089 208.614C311.929 208.585 312.738 208.406 313.515 208.076C314.293 207.746 314.991 207.384 315.611 206.989L323.187 188.238C321.221 188.548 319.357 188.946 317.597 189.431C315.868 189.837 314.289 190.442 312.86 191.245C311.432 192.048 310.152 193.05 309.023 194.25C308.005 195.403 307.144 196.85 306.441 198.591C305.514 200.885 305.254 202.897 305.66 204.626C306.066 206.354 307.099 207.554 308.761 208.226ZM369.886 246.727L408.725 150.596L423.797 156.686L424.51 211.643L443.498 164.646L460.944 171.694L422.105 267.825L407.507 261.927L408.422 203.624L388.044 254.063L369.886 246.727ZM455.045 282.652C447.924 279.775 442.884 275.622 439.924 270.192C437.042 264.794 437.12 258.337 440.157 250.821L450.994 223.999C454.03 216.483 458.46 211.784 464.282 209.903C470.183 208.053 476.694 208.567 483.815 211.444C490.857 214.289 495.897 218.443 498.936 223.904C502.008 229.287 502.009 235.776 498.94 243.371L488.104 270.193C485.035 277.788 480.51 282.495 474.53 284.312C468.582 286.05 462.087 285.497 455.045 282.652ZM460.559 269.004C461.904 269.547 463.045 269.686 463.981 269.42C464.996 269.186 465.901 268.539 466.697 267.48C467.525 266.342 468.338 264.784 469.138 262.806L480.166 235.51C480.997 233.453 481.494 231.767 481.657 230.452C481.82 229.137 481.618 228.043 481.051 227.17C480.562 226.328 479.646 225.636 478.301 225.092C477.035 224.581 475.894 224.442 474.879 224.676C473.943 224.943 473.022 225.629 472.115 226.735C471.319 227.794 470.521 229.312 469.722 231.29L458.694 258.586C457.895 260.564 457.398 262.25 457.203 263.644C457.119 264.991 457.321 266.085 457.809 266.926C458.377 267.8 459.293 268.492 460.559 269.004ZM516.429 307.591C510.178 305.065 505.618 301.658 502.749 297.37C499.991 293.034 498.661 288.125 498.76 282.643C498.858 277.161 500.138 271.373 502.599 265.281L516.648 230.508C519.174 224.258 522.139 218.967 525.545 214.637C529.031 210.339 533.231 207.573 538.148 206.338C543.097 205.024 549.131 205.806 556.252 208.683C562.423 211.176 566.906 214.091 569.699 217.429C572.492 220.766 573.905 224.558 573.938 228.805C573.971 233.052 572.9 237.865 570.726 243.246C570.599 243.562 570.471 243.879 570.343 244.195C570.326 244.464 570.27 244.718 570.174 244.955L551.541 237.427C553.107 233.55 553.942 230.574 554.044 228.498C554.257 226.376 553.019 224.771 550.329 223.684C548.509 222.949 546.901 222.943 545.504 223.667C544.186 224.423 542.81 226.122 541.374 228.764C539.939 231.405 538.214 235.218 536.2 240.202L532.748 248.747C534.369 247.469 536.423 246.827 538.911 246.82C541.431 246.733 544.052 247.194 546.774 248.202C551.901 250.089 555.473 252.867 557.489 256.534C559.583 260.234 560.44 264.491 560.059 269.307C559.71 274.044 558.48 279.023 556.37 284.245C553.653 290.97 550.465 296.585 546.804 301.088C543.176 305.512 538.888 308.382 533.939 309.695C528.991 311.009 523.154 310.308 516.429 307.591ZM522.564 293.089C524.384 293.824 525.929 293.758 527.199 292.891C528.581 291.977 529.87 290.381 531.067 288.103C532.374 285.778 533.747 282.836 535.186 279.275C536.464 276.11 537.448 273.333 538.138 270.943C538.907 268.584 539.112 266.596 538.753 264.979C538.426 263.282 537.234 262.018 535.177 261.187C534.227 260.803 533.238 260.633 532.208 260.677C531.177 260.721 530.218 260.932 529.329 261.309C528.473 261.607 527.774 261.969 527.234 262.395L520.904 278.061C520.041 280.197 519.384 282.279 518.934 284.306C518.562 286.364 518.611 288.179 519.081 289.749C519.662 291.272 520.823 292.386 522.564 293.089Z" fill="white"/>
</svg>
